# xmcd
#
# Track frame offsets:
#	150
#	13001
#	24520
#	35252
#	46131
#	57032
#	68182
#	74930
#	90320
#	101051
#	111225
#	124737
#	139778
#	146405
#	153398
#	164861
#	176072
#	185537
#	197715
#	209371
#	220649
#	231730
#	241617
#	253836
#	266857
#	280683
#	292057
#	305513
#	314705
#
# Disc length: 4349 seconds
#
# Revision: 1
# Processed by: cddbd v1.5.1PL0 Copyright (c) Steve Scherf et al.
# Submitted via: audiograbber 1.82.02
#
DISCID=c310fb1d
DTITLE=Hank Snow - The Hank Snow Collection CD9
DYEAR=1900
DGENRE=Country
TTITLE0=I Almost Lost My Mind
TTITLE1=The Wrong Highway
TTITLE2=Blue Eyes Crying in The Rain
TTITLE3=These Tears Are Not For You
TTITLE4=Jealous Heart
TTITLE5=Hawiian Cowboy
TTITLE6=I'm Thinking Tonight Of My Blue Eyes
TTITLE7=Whispering Hope
TTITLE8=It Is No Secret
TTITLE9=Molly Darling
TTITLE10=I'll Remember You
TTITLE11=Blue Dreams
TTITLE12=Blow Your Whistle
TTITLE13=Lonely River
TTITLE14=I'll Never Let You Go
TTITLE15=Texas Plains
TTITLE16=Born To Lose
TTITLE17=Too Many Tears
TTITLE18=Travelin' Blues
TTITLE19=Faded Rose, Broken Heart
TTITLE20=Yodelling Ranger
TTITLE21=Roll Along Kentuky Moon
TTITLE22=Zeb Turners Gal
TTITLE23=The Sun Has Gone Down
TTITLE24=I Walk Alone
TTITLE25=Old Sheep
TTITLE26=Mississippi River Blues
TTITLE27=Linda Lou
TTITLE28=How Is This Today
EXTD=
EXTT0=
EXTT1=
EXTT2=
EXTT3=
EXTT4=
EXTT5=
EXTT6=
EXTT7=
EXTT8=
EXTT9=
EXTT10=
EXTT11=
EXTT12=
EXTT13=
EXTT14=
EXTT15=
EXTT16=
EXTT17=
EXTT18=
EXTT19=
EXTT20=
EXTT21=
EXTT22=
EXTT23=
EXTT24=
EXTT25=
EXTT26=
EXTT27=
EXTT28=
PLAYORDER=
